<?xml version="1.0" standalone="no"?><!DOCTYPE svg PUBLIC "-//W3C//DTD SVG 1.1//EN" "http://www.w3.org/Graphics/SVG/1.1/DTD/svg11.dtd"><svg t="1651161707942" class="icon" viewBox="0 0 1024 1024" version="1.1" xmlns="http://www.w3.org/2000/svg" p-id="858" width="200" height="200" xmlns:xlink="http://www.w3.org/1999/xlink"><defs><style type="text/css">@font-face { font-family: feedback-iconfont; src: url("//at.alicdn.com/t/font_1031158_u69w8yhxdu.woff2?t=1630033759944") format("woff2"), url("//at.alicdn.com/t/font_1031158_u69w8yhxdu.woff?t=1630033759944") format("woff"), url("//at.alicdn.com/t/font_1031158_u69w8yhxdu.ttf?t=1630033759944") format("truetype"); }
</style></defs><path d="M248.5 153.1H106.6c-21.3 0-38.5 17.9-38.5 40v622.5c0 22.1 17.2 40 38.5 40h141.9c21.3 0 38.5-17.9 38.5-40V193.1c0-22.1-17.2-40-38.5-40z m-6.3 460.2c0 11.2-8.7 20.2-19.5 20.2h-90.4c-10.8 0-19.5-9.1-19.5-20.2v-11.2c0-11.2 8.7-20.2 19.5-20.2h90.4c10.8 0 19.5 9.1 19.5 20.2v11.2z m0-103.3c0 11.2-8.7 20.2-19.5 20.2h-90.4c-10.8 0-19.5-9.1-19.5-20.2v-11.2c0-11.2 8.7-20.2 19.5-20.2h90.4c10.8 0 19.5 9.1 19.5 20.2V510z m0-103.3c0 11.2-8.7 20.2-19.5 20.2h-90.4c-10.8 0-19.5-9.1-19.5-20.2v-11.2c0-11.2 8.7-20.2 19.5-20.2h90.4c10.8 0 19.5 9.1 19.5 20.2v11.2zM506.7 153.1H364.8c-21.3 0-38.5 17.9-38.5 40v622.5c0 22.1 17.2 40 38.5 40h141.9c21.3 0 38.5-17.9 38.5-40V193.1c0-22.1-17.2-40-38.5-40z m-6.3 408.5c0 11.2-8.7 20.2-19.5 20.2h-90.4c-10.8 0-19.5-9.1-19.5-20.2v-11.2c0-11.2 8.7-20.2 19.5-20.2h90.4c10.8 0 19.5 9.1 19.5 20.2v11.2z m0-103.3c0 11.2-8.7 20.2-19.5 20.2h-90.4c-10.8 0-19.5-9.1-19.5-20.2v-11.2c0-11.2 8.7-20.2 19.5-20.2h90.4c10.8 0 19.5 9.1 19.5 20.2v11.2zM949.1 765.4L782.5 165.5c-5.9-21.3-27.3-33.9-47.8-28.2l-136.7 38c-20.5 5.7-32.3 27.6-26.4 48.8l166.6 599.8c5.9 21.3 27.3 33.9 47.8 28.2l136.7-38c20.5-5.6 32.3-27.5 26.4-48.7z" p-id="859" fill="#8a8a8a"></path></svg>